<svg width="28" height="25" viewBox="0 0 28 25" fill="none" xmlns="http://www.w3.org/2000/svg">
    <path d="M25.7871 2.14666C25.1061 1.46533 24.2976 0.924854 23.4076 0.556105C22.5177 0.187355 21.5638 -0.00244141 20.6005 -0.00244141C19.6372 -0.00244141 18.6833 0.187355 17.7933 0.556105C16.9034 0.924854 16.0948 1.46533 15.4138 2.14666L14.0005 3.55999L12.5871 2.14666C11.2116 0.77107 9.34586 -0.00172839 7.40048 -0.00172838C5.45511 -0.00172836 3.58941 0.77107 2.21382 2.14666C0.838228 3.52225 0.0654297 5.38795 0.0654297 7.33333C0.0654297 9.2787 0.838228 11.1444 2.21382 12.52L3.62715 13.9333L14.0005 24.3067L24.3738 13.9333L25.7871 12.52C26.4685 11.839 27.009 11.0304 27.3777 10.1405C27.7465 9.25052 27.9362 8.29664 27.9362 7.33333C27.9362 6.37001 27.7465 5.41613 27.3777 4.52619C27.009 3.63624 26.4685 2.82767 25.7871 2.14666Z" fill="#1EB159"/>
</svg>