<svg width="21" height="21" viewBox="0 0 21 21" fill="none" xmlns="http://www.w3.org/2000/svg">
    <path fill-rule="evenodd" clip-rule="evenodd" d="M20.9966 0.914404C20.9768 0.683873 20.8772 0.462695 20.7074 0.292921C20.5304 0.115907 20.3035 0.0191289 20.072 0.00258597C20.012 -0.00173778 19.9514 -0.000661929 19.891 0.00598195C19.8088 0.0149704 19.7274 0.0341359 19.649 0.0634782L1.34934 6.46837C0.962342 6.60382 0.697238 6.96179 0.680524 7.37147C0.66381 7.78115 0.898874 8.15952 1.27355 8.32604L9.16635 11.834L12.6743 19.7267C12.8408 20.1014 13.2192 20.3365 13.6288 20.3198C14.0385 20.3031 14.3965 20.038 14.5319 19.651L20.9368 1.35129C20.9645 1.27733 20.9831 1.20075 20.9927 1.12327C20.9944 1.10964 20.9958 1.096 20.9969 1.08235C21.0006 1.03785 21.0013 0.993315 20.999 0.949048C20.9984 0.93748 20.9976 0.92593 20.9966 0.914404ZM16.1946 3.3915L4.39077 7.52284L9.70249 9.8836L16.1946 3.3915ZM11.1167 11.2978L17.6088 4.80571L13.4775 16.6095L11.1167 11.2978Z" fill="white"/>
</svg>