<svg width="38" height="37" viewBox="0 0 38 37" fill="none" xmlns="http://www.w3.org/2000/svg">
    <path d="M18.1033 0.81663C18.4701 0.0734622 19.5299 0.0734622 19.8967 0.81663L24.9476 11.0491C25.0931 11.3439 25.3743 11.5484 25.6996 11.596L36.9962 13.2471C37.8161 13.367 38.1429 14.3748 37.5493 14.953L29.3768 22.913C29.1409 23.1427 29.0333 23.4739 29.0889 23.7984L31.0174 35.0426C31.1575 35.8596 30.3 36.4826 29.5664 36.0967L19.4655 30.7848C19.1741 30.6315 18.8259 30.6315 18.5345 30.7848L8.43363 36.0967C7.7 36.4826 6.84245 35.8596 6.98257 35.0426L8.91109 23.7984C8.96675 23.4739 8.85909 23.1427 8.62321 22.913L0.450678 14.953C-0.142915 14.3748 0.183869 13.367 1.00378 13.2471L12.3004 11.596C12.6257 11.5484 12.9069 11.3439 13.0524 11.0491L18.1033 0.81663Z" fill="#21BAFB"/>
</svg>